<svg width="112" height="120" viewBox="0 0 112 120" fill="none" xmlns="http://www.w3.org/2000/svg">
<path d="M7 16H88V97H7V16Z" fill="white"/>
<path fill-rule="evenodd" clip-rule="evenodd" d="M80 24H15V89H80V24ZM7 16V97H88V16H7Z" fill="black"/>
<path d="M112 75.5C112 100.077 92.0767 120 67.5 120C42.9233 120 23 100.077 23 75.5C23 50.9233 42.9233 31 67.5 31C92.0767 31 112 50.9233 112 75.5Z" fill="white"/>
<path fill-rule="evenodd" clip-rule="evenodd" d="M67.5 112C87.6584 112 104 95.6584 104 75.5C104 55.3416 87.6584 39 67.5 39C47.3416 39 31 55.3416 31 75.5C31 95.6584 47.3416 112 67.5 112ZM67.5 120C92.0767 120 112 100.077 112 75.5C112 50.9233 92.0767 31 67.5 31C42.9233 31 23 50.9233 23 75.5C23 100.077 42.9233 120 67.5 120Z" fill="black"/>
<path d="M44 0L87.3013 75H0.69873L44 0Z" fill="white"/>
<path fill-rule="evenodd" clip-rule="evenodd" d="M44 0L0.69873 75H87.3013L44 0ZM44 16L14.5551 67H73.4449L44 16Z" fill="black"/>
</svg>
